<svg id="Слой_1" data-name="Слой 1" xmlns="http://www.w3.org/2000/svg" xmlns:xlink="http://www.w3.org/1999/xlink" viewBox="0 0 256 256"><defs><style>.cls-1{fill:none;}.cls-2{isolation:isolate;}.cls-3{clip-path:url(#clip-path);}.cls-4{fill:#282828;}.cls-5{fill:#343434;}.cls-6{fill:#414141;}.cls-7{fill:#272727;}.cls-8{fill:#3b3b3b;}.cls-9{fill:#848484;}.cls-10{fill:#dbdbdb;}.cls-11{fill:#c5c5c5;}.cls-12{fill:#723a88;}.cls-13{fill:#b75ddb;}.cls-14{fill:#a554c5;}.cls-15{fill:#458c8d;}.cls-16{fill:#6bdadb;}.cls-17{fill:#60c4c5;}.cls-18{clip-path:url(#clip-path-2);}.cls-19{fill:#2c2c2c;}.cls-20{fill:#2a9391;}.cls-21{fill:#3fdbd9;}.cls-22{fill:#39c6c4;}.cls-23{fill:#38c5c3;}.cls-24{clip-path:url(#clip-path-3);}.cls-25{fill:#3accca;}.cls-26{fill:#39c7c5;}.cls-27{fill:#37c2c0;}.cls-28{fill:#36bdba;}.cls-29{fill:#35b8b5;}.cls-30{fill:#33b3b0;}.cls-31{fill:#32adab;}.cls-32{fill:#30a8a6;}.cls-33{fill:#2fa3a1;}.cls-34{fill:#2d9e9c;}.cls-35{clip-path:url(#clip-path-4);}.cls-36{fill:#268583;}.cls-37{fill:#278a88;}.cls-38{fill:#298f8d;}.cls-39{fill:#2a9492;}.cls-40{fill:#2c9997;}.cls-41{clip-path:url(#clip-path-5);}.cls-42{clip-path:url(#clip-path-6);}</style><clipPath id="clip-path"><path class="cls-1" d="M53.84,244.17l-3.52-2c-3.78-2.19-5.31-8-5.43-8.41l3.52,2C48.53,236.2,50.06,242,53.84,244.17Z"/></clipPath><clipPath id="clip-path-2"><path class="cls-1" d="M54.56,245.24,51,243.19c-3.07-1.78-2.91-7.79-2.9-8.24L51.67,237C51.66,237.44,51.5,243.46,54.56,245.24Z"/></clipPath><clipPath id="clip-path-3"><path class="cls-1" d="M149.38,102.25l1.41.82c-1.93-1.12-4.67-.89-7.88,1l-1.41-.82C144.72,101.36,147.45,101.13,149.38,102.25Z"/></clipPath><clipPath id="clip-path-4"><path class="cls-1" d="M130.55,137.39l-1.41-.82c-2.36-1.37-3.51-4.77-2.82-9.69,1.23-8.94,8-19.53,15.18-23.66l1.41.82c-7.15,4.13-13.95,14.72-15.18,23.66C127,132.62,128.19,136,130.55,137.39Z"/></clipPath><clipPath id="clip-path-5"><path class="cls-1" d="M182.68,83.17l1.41.82c-1.93-1.12-4.67-.89-7.89,1l-1.41-.82C178,82.28,180.75,82.05,182.68,83.17Z"/></clipPath><clipPath id="clip-path-6"><path class="cls-1" d="M163.84,118.31l-1.41-.82c-2.36-1.37-3.5-4.77-2.82-9.69,1.23-8.94,8-19.53,15.18-23.66l1.41.82c-7.15,4.13-13.95,14.72-15.18,23.66C160.34,113.54,161.48,116.94,163.84,118.31Z"/></clipPath></defs><title>Movies_dk</title><g class="cls-2"><g class="cls-2"><g class="cls-3"><g class="cls-2"><path class="cls-4" d="M53.84,244.17l-3.52-2c-3.78-2.19-5.31-8-5.43-8.41l3.52,2c.12.44,1.65,6.22,5.43,8.41"/></g></g></g><polygon class="cls-5" points="147.97 48.8 144.44 46.75 154.03 24.76 157.55 26.81 147.97 48.8"/><polygon class="cls-6" points="157.55 26.81 154.03 24.76 185.98 6.31 189.5 8.36 157.55 26.81"/><polygon class="cls-6" points="112.89 69.05 109.37 67 144.44 46.75 147.97 48.8 112.89 69.05"/><polygon class="cls-6" points="110.55 70.4 107.03 68.35 109.37 67 112.89 69.05 110.55 70.4"/><polygon class="cls-6" points="31.83 115.85 28.31 113.8 107.03 68.35 110.55 70.4 31.83 115.85"/><polygon class="cls-7" points="48.41 235.75 44.89 233.71 28.31 113.8 31.83 115.85 48.41 235.75"/><path class="cls-8" d="M189.5,8.36l2.11,15.24,2.49,18L208.2,143.5c0,.76.4,15.13-8.95,20.53l-67.81,39.15-2.34,1.35L61.3,243.68c-9.36,5.4-12.71-7.26-12.89-7.92L31.83,115.85,110.55,70.4l2.34-1.35L148,48.8l9.58-22Z"/></g><g class="cls-2"><polygon class="cls-9" points="53.23 205.31 51.81 204.49 44.31 113.69 45.72 114.51 53.23 205.31"/><polygon class="cls-10" points="45.72 114.51 44.31 113.69 201.57 22.9 202.98 23.72 45.72 114.51"/><polygon class="cls-11" points="202.98 23.72 210.48 114.52 53.23 205.31 45.72 114.51 202.98 23.72"/></g><g class="cls-2"><polygon class="cls-12" points="54.46 207.4 53.05 206.58 52.78 111.61 54.19 112.43 54.46 207.4"/><polygon class="cls-13" points="54.19 112.43 52.78 111.61 210.04 20.82 211.45 21.64 54.19 112.43"/><polygon class="cls-14" points="211.45 21.64 211.72 116.61 54.46 207.4 54.19 112.43 211.45 21.64"/></g><g class="cls-2"><polygon class="cls-15" points="55.7 209.49 54.29 208.67 61.25 109.52 62.66 110.34 55.7 209.49"/><polygon class="cls-16" points="62.66 110.34 61.25 109.52 218.51 18.73 219.92 19.55 62.66 110.34"/><polygon class="cls-17" points="219.92 19.55 212.96 118.69 55.7 209.49 62.66 110.34 219.92 19.55"/></g><g class="cls-2"><polygon class="cls-6" points="148.64 75.16 145.11 73.11 223.84 27.66 227.36 29.71 148.64 75.16"/><polygon class="cls-6" points="146.3 76.51 142.78 74.46 145.11 73.11 148.64 75.16 146.3 76.51"/><g class="cls-2"><g class="cls-18"><g class="cls-2"><path class="cls-4" d="M54.56,245.24,51,243.19c-3.07-1.78-2.91-7.79-2.9-8.24L51.67,237c0,.44-.17,6.46,2.89,8.24"/></g></g></g><polygon class="cls-6" points="111.23 96.76 107.71 94.71 142.78 74.46 146.3 76.51 111.23 96.76"/><polygon class="cls-19" points="51.67 237 48.14 234.95 61.67 137.2 65.19 139.25 51.67 237"/><polygon class="cls-19" points="65.19 139.25 61.67 137.2 64.06 119.91 67.58 121.95 65.19 139.25"/><polygon class="cls-19" points="67.58 121.95 64.06 119.91 66.08 105.29 69.6 107.33 67.58 121.95"/><path class="cls-8" d="M148.64,75.16l78.72-45.45-15.92,115c-.17.73-3.45,14.55-12.79,19.95l-67.82,39.15-2.33,1.35L60.69,244.35c-9.36,5.4-9-6.71-9-7.35l13.52-97.75L67.58,122l2-14.61,32-18.46,9.67,7.88L146.3,76.51Z"/><polygon class="cls-6" points="69.6 107.33 66.08 105.29 98.04 86.83 101.56 88.88 69.6 107.33"/></g><g class="cls-2"><polygon class="cls-20" points="117.81 189.66 116.4 188.84 117.84 178.5 119.25 179.32 117.81 189.66"/><polygon class="cls-21" points="123.44 149.01 122.03 148.19 177.11 116.39 178.52 117.21 123.44 149.01"/><polygon class="cls-20" points="122.01 159.34 120.6 158.52 122.03 148.19 123.44 149.01 122.01 159.34"/><polygon class="cls-20" points="98.53 200.79 97.13 199.97 98.94 186.88 100.35 187.7 98.53 200.79"/><polygon class="cls-20" points="100.35 187.7 98.94 186.88 99.03 186.19 100.44 187.01 100.35 187.7"/><polygon class="cls-20" points="100.44 187.01 99.03 186.19 100.84 173.1 102.25 173.92 100.44 187.01"/><polygon class="cls-20" points="102.25 173.92 100.84 173.1 101.13 171.03 102.54 171.85 102.25 173.92"/><polygon class="cls-22" points="104.16 160.14 102.75 159.32 120.6 158.52 122.01 159.34 104.16 160.14"/><polygon class="cls-23" points="123.44 149.01 178.52 117.21 176.9 128.91 176.52 131.67 174.9 143.39 174.71 144.77 172.9 157.86 117.81 189.66 119.25 179.32 98.53 200.79 100.35 187.7 100.44 187.01 102.25 173.92 102.54 171.85 104.16 160.14 122.01 159.34 123.44 149.01"/><polygon class="cls-20" points="102.54 171.85 101.13 171.03 102.75 159.32 104.16 160.14 102.54 171.85"/></g><g class="cls-2"><g class="cls-2"><g class="cls-24"><g class="cls-2"><path class="cls-25" d="M142.91,104l-1.41-.82a14.1,14.1,0,0,1,1.74-.87l1.41.82a14.1,14.1,0,0,0-1.74.87"/><path class="cls-26" d="M144.65,103.17l-1.41-.82a11,11,0,0,1,1.39-.48l1.41.82a11,11,0,0,0-1.39.48"/><path class="cls-27" d="M146,102.69l-1.41-.82a9.59,9.59,0,0,1,1-.21l1.41.82a9.59,9.59,0,0,0-1,.21"/><path class="cls-28" d="M147,102.48l-1.41-.82a7.65,7.65,0,0,1,.81-.08l1.41.82a7.65,7.65,0,0,0-.81.08"/><path class="cls-29" d="M147.83,102.4l-1.41-.82a5.3,5.3,0,0,1,.69,0l1.41.81q-.35,0-.69,0"/><path class="cls-30" d="M148.52,102.4l-1.41-.81a4.36,4.36,0,0,1,.62.07l1.4.82a6,6,0,0,0-.61-.08"/><path class="cls-31" d="M149.13,102.48l-1.4-.82c.19,0,.38.08.57.13l1.4.82a3.39,3.39,0,0,0-.57-.13"/><path class="cls-32" d="M149.7,102.61l-1.4-.82a3.75,3.75,0,0,1,.53.19l1.41.82a3.46,3.46,0,0,0-.54-.19"/><path class="cls-33" d="M150.24,102.8l-1.41-.82c.17.07.33.15.5.24l1.41.82c-.17-.09-.33-.17-.5-.24"/><path class="cls-34" d="M150.74,103l-1.41-.82,0,0,1.41.82,0,0"/></g></g></g><g class="cls-2"><g class="cls-35"><g class="cls-2"><path class="cls-36" d="M130.55,137.39l-1.41-.82c-2.32-1.35-3.47-4.66-2.85-9.47l1.41.82c-.62,4.81.53,8.12,2.85,9.47"/><path class="cls-37" d="M127.7,127.92l-1.41-.82,0-.22c.08-.59.18-1.18.31-1.78l1.41.82c-.13.6-.23,1.19-.31,1.78l0,.22"/><path class="cls-38" d="M128,125.92l-1.41-.82c.12-.55.26-1.11.41-1.68l1.41.82c-.15.56-.29,1.13-.41,1.68"/><path class="cls-39" d="M128.45,124.24l-1.41-.82c.15-.51.3-1,.48-1.54l1.41.82c-.18.51-.33,1-.48,1.54"/><path class="cls-40" d="M128.93,122.7l-1.41-.82c.16-.49.34-1,.52-1.48l1.41.82c-.18.49-.36,1-.52,1.48"/><path class="cls-34" d="M129.45,121.22,128,120.4c.19-.47.38-1,.59-1.43l1.41.82c-.21.48-.4.95-.59,1.43"/><path class="cls-33" d="M130,119.79l-1.41-.82c.21-.47.42-.94.65-1.41l1.41.82c-.23.46-.44.94-.65,1.41"/><path class="cls-32" d="M130.69,118.38l-1.41-.82c.23-.48.47-1,.71-1.41l1.41.82c-.25.46-.48.93-.71,1.41"/><path class="cls-31" d="M131.4,117l-1.41-.82c.26-.48.52-1,.79-1.41l1.41.81c-.27.47-.53.94-.79,1.42"/><path class="cls-30" d="M132.19,115.55l-1.41-.81c.28-.49.57-1,.87-1.43l1.41.82c-.3.47-.59.94-.87,1.42"/><path class="cls-29" d="M133.06,114.13l-1.41-.82c.32-.49.64-1,1-1.46l1.41.82c-.34.48-.66,1-1,1.46"/><path class="cls-28" d="M134,112.67l-1.41-.82c.36-.51.73-1,1.11-1.51l1.41.82c-.38.49-.75,1-1.11,1.51"/><path class="cls-27" d="M135.15,111.16l-1.41-.82c.43-.55.87-1.08,1.31-1.6l1.41.82c-.44.52-.88,1-1.31,1.6"/><path class="cls-26" d="M136.46,109.56l-1.41-.82c.56-.64,1.14-1.26,1.73-1.84l1.41.82c-.59.58-1.17,1.2-1.73,1.84"/><path class="cls-25" d="M138.19,107.72l-1.41-.82a24.09,24.09,0,0,1,4.72-3.68l1.41.82a24.09,24.09,0,0,0-4.72,3.68"/></g></g></g><path class="cls-23" d="M142.91,104c7.15-4.13,11.94-.22,10.7,8.72s-8,19.54-15.18,23.67-11.94.22-10.7-8.73S135.76,108.17,142.91,104Z"/></g><g class="cls-2"><g class="cls-2"><g class="cls-41"><g class="cls-2"><path class="cls-25" d="M176.2,85l-1.41-.82a13.53,13.53,0,0,1,1.75-.87l1.41.82a13.53,13.53,0,0,0-1.75.87"/><path class="cls-26" d="M178,84.09l-1.41-.82a10.44,10.44,0,0,1,1.39-.48l1.41.82a10.44,10.44,0,0,0-1.39.48"/><path class="cls-27" d="M179.34,83.61l-1.41-.82a9.05,9.05,0,0,1,1-.21l1.41.82a9.05,9.05,0,0,0-1,.21"/><path class="cls-28" d="M180.32,83.4l-1.41-.82a7.47,7.47,0,0,1,.8-.08l1.41.82a5.56,5.56,0,0,0-.8.08"/><path class="cls-29" d="M181.12,83.32l-1.41-.82q.36,0,.69,0l1.41.82h-.69"/><path class="cls-30" d="M181.81,83.32l-1.41-.82.62.07,1.41.82-.62-.07"/><path class="cls-31" d="M182.43,83.39,181,82.57a4.75,4.75,0,0,1,.57.14l1.41.82a4.75,4.75,0,0,0-.57-.14"/><path class="cls-32" d="M183,83.53l-1.41-.82a4.72,4.72,0,0,1,.53.18l1.41.82a4.72,4.72,0,0,0-.53-.18"/><path class="cls-33" d="M183.53,83.71l-1.41-.82a4.66,4.66,0,0,1,.5.25L184,84a4.66,4.66,0,0,0-.5-.25"/><path class="cls-34" d="M184,84l-1.41-.82.06,0,1.41.82L184,84"/></g></g></g><g class="cls-2"><g class="cls-42"><g class="cls-2"><path class="cls-36" d="M163.84,118.31l-1.41-.82c-2.32-1.35-3.47-4.66-2.85-9.47l1.41.82c-.62,4.8.53,8.12,2.85,9.47"/><path class="cls-37" d="M161,108.84l-1.41-.82,0-.22c.08-.59.18-1.18.31-1.78l1.41.82c-.13.6-.23,1.19-.31,1.78l0,.22"/><path class="cls-38" d="M161.33,106.84l-1.41-.82q.18-.84.42-1.68l1.41.82q-.24.84-.42,1.68"/><path class="cls-39" d="M161.75,105.16l-1.41-.82c.14-.52.3-1,.47-1.55l1.41.82c-.17.52-.33,1-.47,1.55"/><path class="cls-40" d="M162.22,103.61l-1.41-.82c.16-.49.34-1,.53-1.47l1.41.82c-.19.49-.37,1-.53,1.47"/><path class="cls-34" d="M162.75,102.14l-1.41-.82c.18-.48.38-1,.58-1.43l1.41.82c-.2.47-.4,1-.58,1.43"/><path class="cls-33" d="M163.33,100.71l-1.41-.82c.21-.48.42-1,.65-1.42l1.41.82c-.23.47-.44.94-.65,1.42"/><path class="cls-32" d="M164,99.29l-1.41-.82c.23-.47.47-.94.71-1.4l1.41.81c-.24.47-.48.94-.71,1.41"/><path class="cls-31" d="M164.69,97.88l-1.41-.81c.26-.48.52-.95.79-1.42l1.41.82c-.27.47-.53.94-.79,1.41"/><path class="cls-30" d="M165.48,96.47l-1.41-.82c.28-.48.57-1,.87-1.42l1.41.82c-.3.47-.59.94-.87,1.42"/><path class="cls-29" d="M166.35,95.05l-1.41-.82c.32-.49.64-1,1-1.46l1.41.82c-.33.48-.66,1-1,1.46"/><path class="cls-28" d="M167.32,93.59l-1.41-.82c.37-.51.74-1,1.12-1.51l1.41.82c-.38.49-.75,1-1.12,1.51"/><path class="cls-27" d="M168.44,92.08,167,91.26c.43-.55.86-1.08,1.31-1.59l1.41.82c-.45.51-.89,1-1.31,1.59"/><path class="cls-26" d="M169.75,90.49l-1.41-.82c.56-.65,1.14-1.26,1.73-1.84l1.41.82c-.59.58-1.17,1.19-1.73,1.84"/><path class="cls-25" d="M171.48,88.65l-1.41-.82a23.5,23.5,0,0,1,4.72-3.69l1.41.82a23.5,23.5,0,0,0-4.72,3.69"/></g></g></g><path class="cls-23" d="M176.2,85c7.15-4.13,11.94-.23,10.71,8.71s-8,19.54-15.19,23.67-11.94.23-10.7-8.72S169.05,89.09,176.2,85Z"/></g></svg>