<?xml version="1.0" standalone="no"?>
<!DOCTYPE svg PUBLIC "-//W3C//DTD SVG 20010904//EN"
 "http://www.w3.org/TR/2001/REC-SVG-20010904/DTD/svg10.dtd">
<svg version="1.0" xmlns="http://www.w3.org/2000/svg"
 width="1280.000000pt" height="1275.000000pt" viewBox="0 0 1280.000000 1275.000000"
 preserveAspectRatio="xMidYMid meet">
<metadata>
Created by potrace 1.15, written by Peter Selinger 2001-2017
</metadata>
<g transform="translate(0.000000,1275.000000) scale(0.100000,-0.100000)"
fill="#000000" stroke="none">
<path d="M4395 12743 l-1430 -3 -1369 -1369 -1369 -1369 314 -6 c173 -3 1691
-10 3374 -16 1683 -6 3237 -13 3454 -16 l394 -6 -3884 -3884 -3884 -3884 1095
-1095 c602 -602 1099 -1095 1105 -1095 5 0 1768 1758 3917 3907 l3908 3908 0
-365 c-1 -1019 22 -6686 28 -6948 l7 -302 1373 1373 1374 1374 -7 4902 -8
4901 -3481 -2 c-1915 -2 -4125 -4 -4911 -5z"/>
</g>
</svg>
